<svg xmlns="http://www.w3.org/2000/svg" viewBox="0 0 512 512"><style>path{fill:#0D0D0D;}@media (prefers-color-scheme:dark){path{fill:#F2F2F2;}}</style>
  <path d="M31 482.3l81.1-417.5c.6-3.7 1.1-7.1 1.1-10 0-13.2-7.2-18.8-21.8-18.8-17.7 0-32.8 1.8-42.6 1.8-7.1 0-11.4-2.2-11.4-8.4 0-6.4 4.5-9 11.4-9 11.2 0 26 2.4 42.9 2.4 29.9 0 47.1-7.6 57.7-14 6.6-4 10.4-6.9 14.8-6.9s6.4 2.6 6.4 8.4c0 2.2-.3 5-1 8.2L114.4 303c-.2.8-.3 1.8-.3 2.9 0 2.1.8 3.5 2.9 3.5 2.2 0 3.5-1.6 6.4-6.9 15.7-29.6 62.2-125.6 135.3-125.5 43.1 0 61 31.6 61 56.2 0 46.6-49 87.1-104.1 106.2-3.1 1.1-4.8 2.1-4.8 4 0 1.3.8 2.4 2.6 3.9 22.3 17.7 35.8 42.1 55.9 98.2 11.7 32.6 16.4 43.2 31.6 43.2 19 0 38.9-31.3 54-93 3.4-13.7 5.8-23.5 14.1-23.5 6.1 0 8.4 3.9 8.4 8.2 0 8.4-6.6 27.3-17.7 52.9-16.9 38.7-38.7 77.9-76.8 77.9-50.8 0-59.1-46.9-65.2-90.3-5.1-37.6-5.3-72.6-36.5-72.6-5.1 0-12.2 2.1-20.2 2.1-6.7 0-10.4-3.1-10.4-8.8 0-6.7 4.8-9.5 10.4-9.5 10.6 0 17.8 3.1 28.4 3.1 45.1 0 84-54.3 84-108 0-25.2-10.1-36.5-24.7-36.5-63.3 0-141.5 147.2-165.3 266.5l-5.6 28.3c-3.2 16.1-6.6 19.3-19.8 19.3H46c-10.9 0-16.1-2.7-16.1-12.7 0-2.7.3-5.9 1.1-9.8z"/>
</svg>
